<svg xmlns="http://www.w3.org/2000/svg" viewBox="0 0 1571.684 1350.532" width="1571.684" height="1350.532">
<g fill="#f97316">
  <path d="M 534.183 186.958 C 578.006 166.666 639.838 149.951 687.973 141.294 C 847.123 112.669 1114.893 129.064 1153.253 327.553 C 1168.763 407.791 1123.523 492.401 1083.223 559.279 C 1063.073 592.857 1041.673 625.669 1019.073 657.643 C 1016.153 662.023 1012.883 667.223 1009.783 671.393 C 1000.993 684.323 991.103 697.093 981.963 709.783 C 977.373 716.163 969.313 725.973 966.213 732.663 C 967.923 736.943 981.723 744.053 986.453 746.793 C 989.523 743.393 992.763 740.133 995.953 736.843 C 1058.273 766.503 1092.293 826.883 1078.793 896.153 C 1068.373 949.583 1033.563 983.753 989.673 1012.683 C 954.023 1012.903 913.063 1011.473 878.013 1012.903 C 878.003 1002.693 878.143 993.233 875.473 983.353 L 877.433 981.463 C 902.943 956.673 917.993 928.303 918.293 891.993 C 918.783 860.733 906.673 830.583 884.683 808.353 C 860.713 784.243 831.363 771.913 797.443 771.983 C 765.713 772.003 735.332 784.803 713.147 807.483 C 672.627 848.503 666.745 910.853 698.863 958.583 C 705.832 968.933 713.676 977.033 722.517 985.733 C 720.688 994.643 719.725 1003.073 719.017 1012.113 L 606.098 1012.493 C 596.518 996.253 583.818 976.773 568.689 965.343 C 561.112 959.623 551.922 955.123 543.088 951.723 C 530.623 946.923 505.630 943.153 499.348 930.093 C 495.832 922.783 493.545 835.943 495.430 825.693 C 498.173 810.783 505.366 796.473 511.215 782.543 C 523.346 774.413 588.265 742.033 591.226 733.953 C 592.095 731.573 591.858 728.583 590.802 726.313 C 589.457 723.413 586.690 721.233 583.692 720.263 C 581.537 719.563 579.811 719.623 577.705 720.353 C 568.933 723.363 559.958 729.563 551.783 733.993 C 534.178 743.603 516.485 753.053 498.705 762.343 C 485.997 744.113 473.741 722.373 462.298 703.163 L 416.108 626.539 C 397.233 634.199 373.693 648.724 353.932 651.954 C 346.680 653.139 338.829 645.782 333.697 641.128 C 355.261 626.481 399.459 608.695 422.063 593.219 C 423.800 591.087 424.396 587.059 423.550 584.419 C 417.382 567.024 398.339 582.879 388.629 587.225 C 367.454 596.702 342.933 614.312 321.309 621.399 C 313.536 613.251 308.997 607.307 303.037 597.798 C 322.314 585.616 386.844 556.482 396.827 546.713 C 400.132 537.555 392.935 527.840 383.713 531.848 C 373.254 536.394 362.829 542.158 352.642 547.418 C 331.900 558.250 311.064 568.901 290.136 579.371 C 283.149 572.052 277.269 563.752 272.682 554.732 C 288.669 543.434 365.487 509.356 371.292 501.052 C 372.890 498.766 373.405 496.950 372.772 494.197 C 372.015 490.909 368.510 486.692 365.400 485.381 C 363.069 484.398 361.739 484.392 359.359 485.210 C 351.070 488.060 342.849 493.394 335.068 497.471 C 312.319 509.388 282.921 526.699 259.359 535.359 C 258.940 535.513 258.516 535.657 258.095 535.807 C 253.481 529.570 243.280 518.588 242.674 511.978 C 246.539 501.581 301.484 476.836 313.764 470.229 L 307.633 457.166 C 319.822 452.160 339.358 441.660 351.648 435.585 C 377.772 422.870 403.828 410.014 429.814 397.019 C 496.333 363.739 563.091 330.936 630.081 298.614 C 634.424 303.292 638.437 308.266 642.090 313.500 C 662.919 343.524 646.083 354.620 635.149 384.656 C 631.270 395.150 628.315 405.964 626.321 416.974 C 616.261 472.666 631.189 529.965 667.143 573.670 C 675.597 584.072 691.553 595.656 697.512 604.775 C 712.399 627.558 724.935 652.832 740.576 675.403 C 777.323 667.183 812.343 665.003 849.113 673.993 C 882.453 629.203 914.013 581.752 946.293 536.093 C 950.803 529.712 968.073 504.147 969.193 497.321 C 976.023 455.534 972.373 408.826 953.343 370.441 C 935.163 334.735 943.643 323.336 966.163 294.996 C 984.133 306.601 1001.443 322.544 1006.833 344.048 C 1002.303 342.109 958.143 318.908 968.363 345.533 C 971.653 354.097 1004.033 365.860 1014.463 368.840 C 1015.643 395.498 1007.363 415.753 1000.703 440.579 C 1000.133 442.700 1001.493 445.441 1002.953 447.030 L 1005.193 447.084 C 1011.873 443.475 1017.693 433.365 1020.883 426.625 C 1034.133 398.820 1038.183 368.290 1027.773 338.930 C 1004.593 273.486 929.873 253.386 867.703 245.283 C 781.403 234.036 693.217 246.343 611.348 275.505 C 591.049 253.796 571.883 230.515 552.000 208.390 C 546.050 201.769 539.130 194.210 534.183 186.958 Z M 666.184 986.343 C 673.370 982.073 677.770 977.543 672.313 969.283 C 632.037 908.283 644.503 828.433 700.635 781.893 C 708.899 775.043 729.170 763.393 725.100 751.583 C 722.192 747.923 717.693 746.253 713.112 746.063 C 674.217 767.183 645.436 803.043 633.233 845.583 C 619.998 890.143 627.170 935.373 650.089 974.753 C 654.402 982.173 656.909 986.373 666.184 986.343 Z M 660.914 730.883 C 671.596 725.733 674.034 722.003 667.917 711.213 C 638.778 659.813 608.351 609.011 578.461 558.025 C 575.828 553.534 573.247 552.593 568.318 552.182 C 559.662 556.906 553.316 560.338 559.506 571.067 C 571.645 592.110 584.600 612.545 596.752 633.604 L 630.436 691.703 C 636.709 702.463 643.137 713.793 650.090 724.153 C 652.938 728.393 656.136 729.913 660.914 730.883 Z M 563.293 924.853 C 577.047 914.993 569.577 907.513 569.468 893.133 C 569.324 874.183 571.327 848.553 578.131 830.723 C 580.963 823.363 584.260 816.183 588.002 809.243 C 594.160 797.783 614.902 769.723 586.548 768.993 C 561.136 784.303 542.735 857.793 545.309 886.343 C 546.568 900.323 542.674 925.903 563.293 924.853 Z M 551.201 668.133 C 540.925 674.013 510.035 687.223 505.558 698.603 C 503.482 703.873 511.763 710.803 518.387 711.343 C 528.599 706.013 558.193 693.303 563.969 682.723 C 567.546 676.183 559.549 668.393 551.201 668.133 Z M 482.514 439.399 L 549.983 404.615 C 556.761 401.144 585.572 388.689 589.344 381.481 C 592.463 375.519 588.220 366.788 578.413 366.085 C 558.216 376.078 538.098 386.232 518.062 396.545 C 507.780 401.719 478.105 414.629 470.833 424.478 C 467.223 429.367 474.558 438.700 482.514 439.399 Z M 523.118 618.387 C 510.860 625.104 498.057 632.224 485.911 639.039 C 470.644 647.606 477.369 664.583 489.826 662.783 C 498.110 659.043 506.541 654.483 514.554 650.091 C 522.487 645.746 541.696 637.088 535.346 625.362 C 532.459 620.031 528.874 619.079 523.118 618.387 Z M 539.716 533.372 C 550.890 528.531 584.646 513.541 590.752 502.498 C 594.160 496.335 585.667 489.068 578.351 488.027 C 564.442 493.318 550.630 503.390 537.248 509.678 C 521.664 517.001 522.772 533.915 539.716 533.372 Z M 573.674 429.046 C 563.472 433.413 501.528 463.785 499.042 470.480 C 497.800 473.824 499.017 478.761 501.013 481.590 C 502.672 483.930 505.228 485.477 508.072 485.860 C 509.183 485.997 510.305 486.029 511.422 485.957 C 526.925 477.763 542.489 469.684 558.112 461.722 C 563.488 458.960 585.114 449.673 586.107 444.272 C 587.774 435.201 584.751 427.698 573.674 429.046 Z M 784.103 704.593 C 774.103 705.773 763.783 706.663 754.793 709.103 C 742.369 712.473 742.255 724.593 751.927 729.883 C 757.881 733.143 777.193 727.293 784.603 726.853 C 801.583 725.013 819.583 727.273 835.983 730.543 C 838.453 731.133 849.743 733.903 850.923 734.643 C 863.033 742.223 876.923 726.473 866.933 718.543 C 850.113 705.183 802.583 703.233 784.103 704.593 Z" fill-rule="nonzero"/>
  <path d="M 470.026 144.093 C 476.989 143.257 481.076 144.058 486.050 149.514 C 513.652 179.787 540.411 210.884 567.842 241.337 C 577.176 251.699 588.651 264.045 596.316 275.508 C 577.265 286.098 546.692 299.602 526.443 309.564 L 359.676 391.867 L 314.291 414.731 C 308.575 417.552 301.175 419.776 295.952 423.263 C 293.270 425.052 292.113 428.181 290.983 431.052 C 288.566 437.191 233.744 462.352 224.093 466.976 C 219.182 460.797 214.962 455.818 211.072 448.955 C 221.911 440.500 265.891 419.469 281.272 411.140 C 278.594 405.522 274.554 398.577 271.508 392.992 L 251.819 402.529 C 233.668 411.409 215.878 421.054 197.691 429.956 C 192.600 424.207 184.724 416.186 183.892 408.724 C 186.543 404.484 245.142 375.374 254.995 369.755 C 253.379 366.277 247.683 353.604 243.207 354.733 C 204.896 364.389 173.670 410.542 141.666 359.740 C 133.440 347.029 136.669 318.036 147.789 307.855 C 164.923 292.169 194.767 282.210 215.238 270.864 C 211.157 263.717 207.182 255.677 203.366 248.323 C 261.195 218.226 322.967 189.932 381.560 160.214 C 386.801 166.823 390.315 172.992 396.290 179.303 C 414.852 169.329 451.053 151.216 470.026 144.093 Z" fill-rule="nonzero"/>
  <path d="M 790.477 309.461 C 868.057 301.052 937.747 357.144 946.107 434.721 C 954.477 512.298 898.347 581.959 820.767 590.283 C 743.244 598.600 673.649 542.523 665.289 465.006 C 656.929 387.489 712.969 317.863 790.477 309.461 Z M 811.527 540.055 C 861.317 536.899 899.137 494.021 896.057 444.231 C 892.977 394.441 850.157 356.551 800.367 359.553 C 750.461 362.562 712.470 405.496 715.556 455.394 C 718.642 505.293 761.633 543.218 811.527 540.055 Z" fill-rule="nonzero"/>
  <path d="M 56.562 990.912 C 73.878 990.272 95.166 991.312 112.571 990.622 C 190.215 987.542 285.053 990.282 255.366 1097.792 C 245.844 1132.272 224.191 1147.802 193.005 1164.142 C 207.773 1198.862 227.742 1236.012 244.338 1270.002 C 221.823 1270.782 198.879 1269.742 176.333 1270.062 C 171.075 1270.132 165.658 1270.072 160.424 1269.582 C 146.721 1239.152 133.516 1205.202 121.003 1174.122 C 112.006 1173.732 104.009 1173.832 95.045 1173.992 C 87.437 1203.692 81.451 1239.392 75.482 1269.842 C 50.322 1270.082 25.160 1270.102 0.000 1269.882 C 1.107 1261.682 4.391 1248.202 6.176 1239.722 L 17.020 1186.792 L 56.562 990.912 Z M 118.229 1049.872 C 114.787 1072.572 109.522 1097.312 104.818 1119.862 C 120.384 1120.012 140.098 1121.242 154.706 1116.162 C 165.045 1112.772 175.421 1105.692 179.473 1095.462 C 198.096 1048.462 160.958 1049.242 131.251 1049.262 L 118.229 1049.872 Z" fill-rule="nonzero"/>
  <path d="M 1122.393 152.264 C 1128.803 153.424 1195.323 182.138 1203.873 186.629 L 1218.113 165.716 C 1244.133 176.414 1270.183 188.643 1295.863 200.175 C 1328.973 214.653 1361.953 229.424 1394.803 244.487 C 1391.883 251.737 1385.993 262.389 1382.363 270.195 C 1406.023 282.283 1444.063 291.171 1455.903 314.780 C 1461.723 326.244 1462.623 339.582 1458.403 351.725 C 1454.163 363.994 1446.023 373.500 1434.333 379.300 C 1412.363 390.193 1396.523 375.256 1375.883 367.806 L 1374.713 367.396 C 1369.313 367.149 1363.713 368.414 1360.903 373.336 C 1359.613 394.656 1398.403 395.535 1406.593 408.278 C 1412.013 416.704 1395.163 440.248 1387.153 443.729 C 1383.673 445.241 1379.173 443.812 1375.833 442.496 C 1353.203 433.581 1330.893 423.718 1308.483 414.238 L 1192.103 365.711 C 1203.843 284.607 1171.023 216.894 1111.643 163.268 C 1114.933 159.569 1118.863 155.797 1122.393 152.264 Z" fill-rule="nonzero"/>
  <path d="M 1493.573 1054.612 C 1548.493 1047.982 1573.723 1085.582 1570.393 1136.412 C 1566.483 1196.202 1542.683 1265.992 1475.123 1276.582 C 1448.183 1280.812 1430.553 1275.332 1409.283 1259.342 C 1402.033 1288.352 1396.263 1325.272 1389.853 1355.332 C 1365.813 1355.452 1341.773 1355.422 1317.733 1355.232 C 1326.523 1304.122 1338.723 1248.372 1349.343 1197.472 C 1358.753 1151.602 1367.883 1105.672 1376.723 1059.692 L 1432.873 1059.802 C 1434.923 1067.962 1435.803 1075.402 1437.003 1083.702 C 1459.763 1068.382 1463.453 1060.852 1493.573 1054.612 Z M 1448.723 1222.032 C 1488.323 1215.822 1494.123 1165.872 1493.433 1132.672 C 1493.153 1119.262 1480.463 1112.492 1467.763 1113.512 C 1425.923 1125.352 1433.913 1146.452 1424.593 1182.222 C 1418.273 1206.492 1421.093 1217.842 1448.723 1222.032 Z" fill-rule="nonzero"/>
  <path d="M 1231.275 1053.860 C 1277.235 1048.130 1334.085 1075.470 1336.315 1126.640 C 1339.695 1204.230 1303.535 1268.380 1222.415 1276.430 C 1171.615 1279.630 1119.345 1260.400 1114.825 1204.010 C 1108.555 1125.780 1152.795 1062.840 1231.275 1053.860 Z M 1217.895 1221.350 C 1244.635 1216.730 1251.955 1197.120 1257.375 1173.330 C 1262.665 1150.070 1268.395 1110.330 1232.335 1111.680 C 1210.255 1116.390 1199.415 1133.070 1194.525 1153.730 C 1188.445 1179.410 1180.305 1219.260 1217.895 1221.350 Z" fill-rule="nonzero"/>
  <path d="M 1004.347 1051.295 C 1027.847 1048.455 1063.647 1058.585 1081.327 1074.925 C 1096.547 1088.655 1105.727 1111.465 1105.617 1132.065 C 1105.197 1208.395 1064.797 1270.645 984.687 1274.125 C 914.507 1276.565 873.467 1236.775 884.517 1165.635 C 895.017 1097.975 935.787 1057.525 1004.347 1051.295 Z M 988.667 1218.025 C 1000.117 1215.195 1009.537 1210.175 1015.317 1199.015 C 1025.747 1178.855 1032.157 1148.765 1027.627 1126.335 C 1024.397 1110.355 1011.867 1108.335 997.997 1109.255 C 979.457 1112.905 969.457 1129.015 964.167 1145.995 C 956.587 1170.355 946.627 1222.025 988.667 1218.025 Z" fill-rule="nonzero"/>
  <path d="M 404.749 1050.913 C 425.840 1048.213 455.993 1053.583 472.977 1067.043 C 501.647 1089.753 500.706 1137.963 479.639 1165.283 C 469.706 1178.163 450.985 1179.203 436.114 1180.603 C 409.131 1182.613 382.083 1184.123 355.076 1185.873 C 353.925 1242.073 436.123 1216.093 465.249 1203.133 C 466.599 1214.783 467.819 1226.453 468.910 1238.133 L 470.289 1252.613 C 430.677 1276.033 347.410 1284.833 309.289 1254.243 C 264.045 1217.933 282.355 1135.403 314.292 1096.163 C 337.319 1067.863 369.207 1054.663 404.749 1050.913 Z M 359.994 1143.973 C 369.374 1144.173 378.495 1143.763 387.857 1143.413 C 399.743 1142.143 419.527 1141.063 426.063 1130.623 C 438.114 1111.383 419.347 1101.553 402.593 1102.603 C 378.112 1109.393 367.406 1119.853 359.994 1143.973 Z" fill-rule="nonzero"/>
  <path d="M 764.473 6.214 C 764.663 6.192 764.853 6.170 765.053 6.148 C 881.783 -0.000 998.723 27.808 1099.603 86.941 C 1122.213 100.191 1141.683 111.903 1161.123 129.460 C 1134.443 119.535 1106.133 108.879 1082.223 132.657 C 1013.063 92.016 934.763 68.801 855.243 60.549 C 762.143 52.020 668.332 65.259 581.225 99.221 C 558.685 108.131 538.963 118.356 517.226 129.002 C 496.720 107.126 478.832 106.562 451.981 115.471 C 468.464 105.695 483.327 95.124 500.680 85.232 C 587.044 36.000 666.266 14.741 764.473 6.214 Z" fill-rule="nonzero"/>
  <path d="M 1376.343 538.287 C 1378.023 539.981 1378.153 542.792 1378.393 545.133 C 1392.813 678.511 1361.873 812.861 1290.573 926.501 C 1281.093 941.491 1267.703 961.961 1256.573 975.581 C 1231.403 977.471 1201.723 977.921 1176.233 978.561 L 1173.193 978.111 C 1173.233 974.201 1181.923 967.261 1184.843 963.731 C 1269.903 861.311 1312.883 755.661 1316.673 619.595 C 1332.003 594.460 1360.633 564.212 1376.343 538.287 Z" fill-rule="nonzero"/>
  <path d="M 224.167 543.219 C 225.541 544.544 238.258 562.177 240.547 565.185 C 255.279 584.552 269.310 604.588 284.852 623.352 C 294.344 776.441 332.034 861.431 428.997 978.331 L 428.227 979.431 C 401.646 977.781 371.272 977.311 344.493 976.781 C 333.615 960.661 322.312 945.791 311.542 929.011 C 252.034 834.221 220.442 724.591 220.386 612.679 C 220.213 595.800 220.821 558.479 224.167 543.219 Z" fill-rule="nonzero"/>
  <path d="M 497.139 1054.421 C 521.433 1054.271 546.241 1054.571 570.547 1054.801 C 577.040 1101.761 578.421 1153.771 584.039 1201.261 C 590.195 1192.351 598.975 1171.101 604.045 1160.671 C 620.637 1126.541 635.773 1088.721 653.218 1055.211 C 671.833 1053.811 708.649 1054.311 727.594 1055.131 C 720.367 1070.431 712.115 1085.411 704.098 1100.331 C 678.879 1145.541 655.532 1192.931 630.387 1238.301 C 624.812 1248.361 620.230 1258.351 613.975 1268.111 L 530.961 1268.161 C 528.940 1251.671 525.625 1234.021 523.000 1217.471 C 517.951 1185.011 512.708 1152.581 507.271 1120.191 C 503.939 1100.231 498.875 1074.171 497.139 1054.421 Z" fill-rule="nonzero"/>
  <path d="M 823.125 977.961 L 837.415 977.691 C 826.395 1020.881 819.315 1071.171 809.225 1115.281 C 804.455 1141.671 795.915 1169.651 793.565 1196.201 C 791.855 1215.541 844.585 1207.181 856.535 1206.261 C 853.975 1225.131 849.065 1248.731 845.655 1267.741 C 829.955 1267.391 812.135 1268.381 796.315 1269.201 C 774.385 1269.921 741.116 1269.731 726.085 1250.291 C 720.708 1242.461 716.360 1229.511 717.018 1220.111 C 718.883 1193.491 726.069 1164.931 731.741 1138.941 L 751.710 1044.801 C 756.276 1023.311 761.859 999.591 765.245 978.201 C 784.535 978.631 803.835 978.551 823.125 977.961 Z" fill-rule="nonzero"/>
  <path d="M 792.082 789.192 C 794.232 788.832 795.782 788.702 797.992 788.622 C 864.472 786.302 906.272 853.532 879.642 913.102 C 873.962 925.792 867.122 933.622 857.122 943.692 C 843.222 936.622 825.922 938.322 809.982 938.132 C 790.992 938.402 759.724 936.612 743.737 944.142 C 725.823 927.752 714.864 909.082 712.296 884.612 C 710.018 861.482 717.095 838.412 731.948 820.532 C 746.999 802.472 768.652 791.182 792.082 789.192 Z M 802.862 918.292 C 818.072 917.272 831.552 908.152 838.162 894.412 C 844.762 880.672 843.472 864.442 834.762 851.922 C 826.062 839.402 811.302 832.532 796.122 833.942 C 773.062 836.072 755.998 856.352 757.841 879.442 C 759.685 902.532 779.752 919.852 802.862 918.292 Z" fill-rule="nonzero"/>
  <path d="M 1108.463 557.687 C 1124.833 562.749 1256.363 617.791 1260.253 621.866 C 1264.293 634.292 1241.053 638.291 1230.793 634.650 C 1212.453 628.139 1194.813 621.046 1176.773 613.811 C 1151.253 658.461 1124.973 708.011 1098.233 751.551 C 1079.793 736.931 1054.003 723.461 1033.143 712.191 C 1025.713 708.271 1019.233 705.101 1012.523 699.961 C 1015.903 693.111 1017.153 691.021 1021.633 684.771 C 1029.553 687.881 1073.973 707.791 1077.083 706.291 C 1104.043 693.291 1044.343 673.301 1034.243 668.611 L 1045.403 651.451 C 1060.843 656.741 1079.893 667.771 1095.573 671.951 C 1097.603 672.491 1100.343 670.241 1101.953 668.791 C 1109.613 652.451 1070.513 642.921 1058.153 636.001 L 1056.653 635.148 C 1059.403 630.085 1065.403 621.913 1068.883 616.901 C 1078.453 620.022 1111.663 636.081 1116.033 634.530 C 1145.773 624.003 1087.013 603.144 1081.343 600.621 L 1108.463 557.687 Z" fill-rule="nonzero"/>
  <path d="M 1188.063 385.817 C 1200.663 391.937 1218.623 398.724 1231.873 404.245 C 1262.043 416.992 1292.283 429.561 1322.603 441.950 C 1338.113 448.423 1353.793 454.629 1368.873 462.035 C 1378.093 466.562 1367.863 477.227 1363.813 483.280 C 1360.343 485.537 1358.213 485.583 1354.413 484.053 C 1306.183 464.642 1258.713 443.422 1210.323 424.383 C 1200.503 420.519 1190.283 416.231 1180.823 411.584 C 1183.693 402.559 1186.133 395.137 1188.063 385.817 Z" fill-rule="nonzero"/>
  <path d="M 1173.323 431.026 C 1190.453 436.508 1337.983 497.776 1344.813 504.739 C 1345.283 510.401 1338.033 518.562 1334.513 523.327 C 1327.243 526.573 1302.493 514.272 1294.613 511.001 L 1237.653 487.079 C 1217.933 478.717 1181.033 464.585 1163.723 455.296 C 1167.343 446.948 1170.573 439.743 1173.323 431.026 Z" fill-rule="nonzero"/>
  <path d="M 1154.723 474.446 C 1166.313 478.485 1178.983 484.330 1190.533 489.111 C 1211.853 497.759 1233.123 506.545 1254.323 515.468 C 1268.703 521.505 1309.983 537.961 1320.433 544.799 C 1315.933 551.567 1311.803 557.219 1305.933 562.836 C 1296.633 564.384 1279.673 556.039 1270.883 552.210 C 1228.523 533.752 1184.703 517.579 1142.773 498.160 C 1146.593 490.173 1150.573 482.267 1154.723 474.446 Z" fill-rule="nonzero"/>
  <path d="M 1132.783 517.059 C 1144.253 519.212 1281.313 577.072 1290.263 583.701 C 1289.583 589.248 1281.093 598.401 1277.393 602.915 C 1263.783 604.626 1171.793 559.046 1151.153 553.138 C 1146.473 551.797 1124.383 541.643 1119.893 539.141 C 1123.293 531.988 1128.563 523.918 1132.783 517.059 Z" fill-rule="nonzero"/>
  <path d="M 1009.783 653.711 C 1012.883 649.541 1016.153 644.341 1019.073 639.961 L 1021.533 644.001 C 1023.443 643.461 1022.493 643.861 1024.373 642.751 L 1025.193 644.001 C 1023.473 645.731 1024.483 645.021 1021.763 645.561 L 1022.023 647.521 L 1024.473 647.891 L 1024.413 649.301 L 1021.803 649.131 C 1022.043 652.211 1022.543 654.781 1021.603 657.681 L 1020.183 659.011 C 1013.693 658.761 1013.963 657.211 1009.783 653.711 Z" fill-rule="nonzero" fill-opacity="0.01"/>
</g>
</svg>
